<svg width="86" height="34" viewBox="0 0 86 34" fill="none" xmlns="http://www.w3.org/2000/svg">
<g clip-path="url(#clip0_1_764)">
<path fill-rule="evenodd" clip-rule="evenodd" d="M53.3527 28.3329C48.3551 32.0284 41.1114 34.0001 34.8747 34.0001C26.1298 34.0001 18.2572 30.7553 12.3012 25.3585C11.8333 24.9341 12.2525 24.3557 12.8141 24.6862C19.2417 28.4381 27.1892 30.6952 35.3988 30.6952C40.9355 30.6952 47.0262 29.546 52.6265 27.1612C53.4725 26.8006 54.1801 27.717 53.3527 28.3329" fill="#FF9900"/>
<path fill-rule="evenodd" clip-rule="evenodd" d="M55.4303 25.948C54.7939 25.1293 51.2077 25.5612 49.5979 25.7527C49.1075 25.8128 49.0327 25.3847 49.4744 25.0767C52.3307 23.06 57.0176 23.6421 57.5641 24.3181C58.1107 24.9979 57.4219 29.7111 54.7378 31.9607C54.326 32.3062 53.9329 32.1222 54.1164 31.664C54.7191 30.1543 56.0705 26.7705 55.4303 25.948" fill="#FF9900"/>
<path fill-rule="evenodd" clip-rule="evenodd" d="M49.7103 10.8395V8.87904C49.7103 8.58235 49.9349 8.3833 50.2044 8.3833H58.9531C59.2338 8.3833 59.4584 8.5861 59.4584 8.87904V10.5578C59.4547 10.8395 59.2188 11.2075 58.7996 11.7896L54.2662 18.283C55.9507 18.2417 57.7289 18.4934 59.2563 19.3571C59.6007 19.5524 59.6943 19.8379 59.7205 20.1195V22.2114C59.7205 22.4968 59.406 22.8311 59.0766 22.6583C56.385 21.2425 52.8099 21.0885 49.8338 22.6733C49.5306 22.8386 49.2124 22.5081 49.2124 22.2227V20.236C49.2124 19.9167 49.2161 19.3722 49.5343 18.8877L54.7865 11.3314H50.2157C49.9349 11.3314 49.7103 11.1324 49.7103 10.8395" fill="black"/>
<path fill-rule="evenodd" clip-rule="evenodd" d="M17.7967 23.0711H15.1351C14.8805 23.0523 14.6784 22.8608 14.6597 22.6167V8.91251C14.6597 8.63836 14.888 8.42053 15.1725 8.42053H17.6545C17.9128 8.43179 18.1187 8.63084 18.1374 8.87871V10.6701H18.1861C18.8337 8.9388 20.0503 8.13135 21.69 8.13135C23.3559 8.13135 24.3966 8.9388 25.1453 10.6701C25.7892 8.9388 27.2529 8.13135 28.8214 8.13135C29.937 8.13135 31.1574 8.59329 31.9024 9.62983C32.7447 10.7828 32.5725 12.4578 32.5725 13.9262L32.5687 22.5754C32.5687 22.8495 32.3404 23.0711 32.0558 23.0711H29.3979C29.1322 23.0523 28.9188 22.8382 28.9188 22.5754V15.312C28.9188 14.7337 28.9712 13.2915 28.8439 12.7432C28.6455 11.8231 28.0503 11.564 27.2791 11.564C26.6352 11.564 25.9614 11.9959 25.6881 12.6869C25.4148 13.3779 25.441 14.5346 25.441 15.312V22.5754C25.441 22.8495 25.2127 23.0711 24.9282 23.0711H22.2703C22.0007 23.0523 21.7911 22.8382 21.7911 22.5754L21.7874 15.312C21.7874 13.7835 22.0382 11.5339 20.1477 11.5339C18.2347 11.5339 18.3096 13.7272 18.3096 15.312V22.5754C18.3096 22.8495 18.0813 23.0711 17.7967 23.0711" fill="black"/>
<path fill-rule="evenodd" clip-rule="evenodd" d="M66.9904 8.13135C70.9398 8.13135 73.0773 11.5339 73.0773 15.8604C73.0773 20.0403 70.7152 23.3565 66.9904 23.3565C63.1121 23.3565 61.0007 19.954 61.0007 15.7139C61.0007 11.4475 63.1383 8.13135 66.9904 8.13135V8.13135ZM67.0128 10.9293C65.0512 10.9293 64.9277 13.6108 64.9277 15.282C64.9277 16.957 64.9015 20.5323 66.9904 20.5323C69.0531 20.5323 69.1504 17.648 69.1504 15.8904C69.1504 14.7337 69.1017 13.3516 68.7536 12.255C68.4541 11.3011 67.8589 10.9293 67.0128 10.9293" fill="black"/>
<path fill-rule="evenodd" clip-rule="evenodd" d="M78.1985 23.0711H75.5481C75.2823 23.0523 75.0689 22.8382 75.0689 22.5754L75.0652 8.86744C75.0876 8.61582 75.3085 8.42053 75.578 8.42053H78.045C78.2771 8.43179 78.468 8.58953 78.5205 8.8036V10.8992H78.5691C79.3141 9.02518 80.3585 8.13135 82.1966 8.13135C83.3908 8.13135 84.555 8.56324 85.3037 9.74625C86 10.8429 86 12.6869 86 14.0126V22.6392C85.9701 22.8796 85.7492 23.0711 85.4872 23.0711H82.818C82.5747 23.0523 82.3725 22.872 82.3463 22.6392V15.1956C82.3463 13.6971 82.5185 11.5039 80.6805 11.5039C80.0328 11.5039 79.4376 11.9395 79.1419 12.6005C78.7675 13.438 78.7189 14.2717 78.7189 15.1956V22.5754C78.7151 22.8495 78.483 23.0711 78.1985 23.0711" fill="black"/>
<path fill-rule="evenodd" clip-rule="evenodd" d="M42.7361 16.5252C42.7361 17.5655 42.7623 18.433 42.2382 19.3569C41.8152 20.108 41.1413 20.57 40.3964 20.57C39.3744 20.57 38.7754 19.7888 38.7754 18.6358C38.7754 16.36 40.8081 15.9468 42.7361 15.9468V16.5252V16.5252ZM45.4202 23.0336C45.2442 23.1914 44.9897 23.2026 44.7913 23.0975C43.9078 22.3614 43.7468 22.0196 43.2639 21.3173C41.8039 22.8121 40.767 23.259 38.8765 23.259C36.6341 23.259 34.8934 21.8732 34.8934 19.0978C34.8934 16.9308 36.0614 15.4549 37.731 14.7338C39.176 14.0953 41.1937 13.9827 42.7361 13.8062V13.4606C42.7361 12.8259 42.7847 12.0748 42.4104 11.5265C42.0884 11.0345 41.467 10.8317 40.9167 10.8317C39.9022 10.8317 39 11.3537 38.7792 12.4354C38.7342 12.6757 38.5583 12.9123 38.315 12.9236L35.7357 12.6457C35.5185 12.5969 35.2752 12.4203 35.3389 12.0861C35.9303 8.94641 38.7604 8 41.2911 8C42.5863 8 44.2784 8.34552 45.3004 9.32948C46.5956 10.5425 46.4721 12.1612 46.4721 13.9226V18.0838C46.4721 19.3344 46.9887 19.8827 47.4754 20.5587C47.6438 20.7991 47.6813 21.0882 47.4641 21.2685C46.9213 21.7229 45.9555 22.568 45.4239 23.0412L45.4202 23.0336" fill="black"/>
<path fill-rule="evenodd" clip-rule="evenodd" d="M7.84268 16.5252C7.84268 17.5655 7.86889 18.433 7.3448 19.3569C6.92177 20.108 6.25168 20.57 5.50298 20.57C4.481 20.57 3.88578 19.7888 3.88578 18.6358C3.88578 16.36 5.91851 15.9468 7.84268 15.9468V16.5252V16.5252ZM10.5268 23.0336C10.3508 23.1914 10.0963 23.2026 9.89788 23.0975C9.01441 22.3614 8.85718 22.0196 8.37052 21.3173C6.91054 22.8121 5.87733 23.259 3.98311 23.259C1.74448 23.259 0 21.8732 0 19.0978C0 16.9308 1.17172 15.4549 2.83759 14.7338C4.28259 14.0953 6.30035 13.9827 7.84268 13.8062V13.4606C7.84268 12.8259 7.89135 12.0748 7.52074 11.5265C7.19505 11.0345 6.57363 10.8317 6.02707 10.8317C5.01258 10.8317 4.10665 11.3537 3.88578 12.4354C3.84085 12.6757 3.66491 12.9123 3.42532 12.9236L0.842293 12.6457C0.625168 12.5969 0.385582 12.4203 0.445479 12.0861C1.0407 8.94641 3.86706 8 6.39768 8C7.69294 8 9.38501 8.34552 10.407 9.32948C11.7023 10.5425 11.5787 12.1612 11.5787 13.9226V18.0838C11.5787 19.3344 12.0953 19.8827 12.582 20.5587C12.7542 20.7991 12.7916 21.0882 12.5745 21.2685C12.0317 21.7229 11.0659 22.568 10.5343 23.0412L10.5268 23.0336" fill="black"/>
</g>
<defs>
<clipPath id="clip0_1_764">
<rect width="86" height="26" fill="white" transform="translate(0 8)"/>
</clipPath>
</defs>
</svg>
