<svg width="95" height="46" viewBox="0 0 95 46" fill="none" xmlns="http://www.w3.org/2000/svg">
<g clip-path="url(#clip0_1_818)">
<path d="M16.4069 16.4023C15.8067 15.2759 15.0864 14.4713 14.166 13.908C13.2456 13.3448 12.1651 13.0632 10.9246 13.0632C9.28391 13.0632 7.88332 13.6667 6.76285 14.8736C5.64238 16.0805 5.08214 17.6092 5.08214 19.4195C5.08214 21.2299 5.64238 22.7184 6.80286 23.9253C7.96335 25.1322 9.36394 25.6954 11.1247 25.6954C12.4452 25.6954 13.5657 25.4138 14.4461 24.8506C15.3265 24.2874 16.0067 23.4023 16.4069 22.2759H21.6091C20.9688 24.8908 19.7283 26.9023 17.8875 28.3908C16.0468 29.8793 13.8058 30.6034 11.1247 30.6034C9.56403 30.6034 8.12342 30.3218 6.80286 29.7586C5.48231 29.1954 4.2818 28.3908 3.20135 27.2644C2.20093 26.2184 1.44061 25.0517 0.880371 23.6437C0.280118 22.3161 0 20.908 0 19.5C0 18.0115 0.240101 16.6034 0.76032 15.3161C1.28054 14.0287 2.04086 12.8621 3.04128 11.8161C4.16175 10.6494 5.36226 9.76437 6.76285 9.16092C8.12342 8.55747 9.64406 8.23563 11.2047 8.23563C13.7658 8.23563 16.0067 8.95977 17.9275 10.4483C19.8083 11.9368 21.0489 13.908 21.6491 16.4023H16.4069ZM65.3475 10.569V2H70.1896V30.0805H65.3475V28.3506C64.3871 29.1149 63.3467 29.6782 62.3062 30.0805C61.2258 30.4425 60.0653 30.6437 58.8248 30.6437C57.5042 30.6437 56.2637 30.4425 55.0632 30C53.9027 29.5575 52.8222 28.954 51.9019 28.1494C50.6213 27.023 49.6609 25.7356 48.9806 24.2069C48.3003 22.6782 47.9402 21.1092 47.9402 19.4195C47.9402 17.8506 48.2603 16.3621 48.9006 14.9138C49.5409 13.4655 50.4212 12.2184 51.5817 11.1724C52.5421 10.2471 53.6226 9.56322 54.8631 9.08046C56.1036 8.5977 57.4242 8.35632 58.8248 8.35632C60.1853 8.35632 61.3858 8.51724 62.4263 8.87931C63.4267 9.24138 64.4271 9.8046 65.3475 10.569ZM65.1474 19.5402C65.1474 17.7299 64.5872 16.2011 63.4267 14.9943C62.2662 13.7874 60.8656 13.1839 59.1449 13.1839C57.4642 13.1839 56.0236 13.7874 54.8231 15.0345C53.6226 16.2816 53.0223 17.7299 53.0223 19.4598C53.0223 21.2299 53.6226 22.7184 54.8231 23.9253C56.0236 25.1322 57.5442 25.6954 59.385 25.6954C60.9857 25.6954 62.3463 25.092 63.4667 23.8851C64.5472 22.7586 65.1474 21.2701 65.1474 19.5402ZM78.0729 21.0287C78.2329 22.5575 78.8332 23.7644 79.8736 24.6494C80.9141 25.5345 82.2746 25.977 83.9153 25.977C85.0358 25.977 85.9962 25.7356 86.8766 25.2931C87.757 24.8103 88.4372 24.1667 88.9575 23.3621H94.2397C93.3593 25.6552 91.9987 27.4655 90.238 28.7529C88.4372 30.0402 86.3964 30.6839 84.0354 30.6839C82.4747 30.6839 81.0341 30.4023 79.7136 29.8391C78.393 29.2759 77.1925 28.4713 76.1521 27.3448C75.1516 26.2988 74.3913 25.092 73.8311 23.7241C73.2709 22.3563 72.9907 20.9483 72.9907 19.5402C72.9907 18.0517 73.2308 16.6839 73.7511 15.3563C74.2713 14.069 74.9916 12.8621 75.992 11.8563C77.0725 10.7299 78.273 9.84483 79.6335 9.20115C80.9941 8.5977 82.3947 8.27586 83.8353 8.27586C85.6761 8.27586 87.3568 8.67816 88.9575 9.52299C90.5581 10.3678 91.8787 11.5345 92.9992 13.0632C93.6794 13.9885 94.1596 14.9943 94.5198 16.1207C94.8399 17.2471 95 18.5345 95 20.023C95 20.1437 95 20.3046 95 20.546C95 20.7874 95 20.9483 95 21.069L78.0729 21.0287ZM89.6778 17.1264C89.2776 15.7184 88.5573 14.6322 87.5569 13.908C86.5564 13.1839 85.3159 12.7816 83.7953 12.7816C82.5147 12.7816 81.3142 13.1839 80.2738 13.9885C79.2334 14.7931 78.5531 15.8391 78.1929 17.1264H89.6778Z" fill="#4A4A4F"/>
<path d="M23.77 19.3795C23.77 17.891 24.0501 16.483 24.5704 15.1151C25.1306 13.7876 25.8909 12.5807 26.9314 11.5347C27.9718 10.4485 29.1723 9.64389 30.5329 9.08067C31.8534 8.51745 33.254 8.23584 34.6946 8.23584C36.2153 8.23584 37.6158 8.47722 38.8964 9.00021C40.1769 9.5232 41.3774 10.2473 42.4579 11.2933C43.5784 12.3795 44.4187 13.5864 45.019 14.9945C45.6192 16.4025 45.9394 17.8106 45.9394 19.2991C45.9394 20.9083 45.6993 22.3968 45.139 23.7243C44.6188 25.0519 43.8185 26.2588 42.778 27.345C41.7376 28.4312 40.5371 29.2761 39.1765 29.8393C37.8159 30.4025 36.3753 30.6841 34.8147 30.6841C33.214 30.6841 31.7734 30.4025 30.4928 29.8393C29.1723 29.2761 28.0118 28.4312 26.9314 27.3048C25.8909 26.1784 25.1306 24.9715 24.6104 23.6439C24.0101 22.2358 23.77 20.868 23.77 19.3795ZM28.8121 19.3393C28.8121 21.3106 29.3324 22.8795 30.4128 24.006C31.4933 25.1726 32.9739 25.7358 34.8147 25.7358C36.6154 25.7358 38.056 25.1324 39.1365 23.9657C40.2169 22.7991 40.7372 21.2301 40.7372 19.2186C40.7372 17.4485 40.1769 15.96 39.0565 14.8335C37.936 13.7071 36.4954 13.1037 34.8147 13.1037C33.0539 13.1037 31.6133 13.6669 30.4928 14.8335C29.3724 16.0002 28.8121 17.4887 28.8121 19.3393ZM47.9002 35.7129V34.6669H48.9406V35.7129H47.9002ZM47.9402 43.9197V37.5232H48.8606V43.9197H47.9402ZM55.5434 43.9197V39.9772C55.5434 38.8508 54.9431 38.2876 53.9827 38.2876C53.0223 38.2876 52.4221 38.8508 52.4221 39.9772V43.9197H51.5017V37.5232H52.4221V38.2071C52.8623 37.6841 53.5025 37.4427 54.2228 37.4427C54.9031 37.4427 55.4634 37.6439 55.8635 38.0462C56.3037 38.4887 56.5038 39.0922 56.5038 39.8163V43.9197H55.5434ZM60.9857 44.0002C59.9052 44.0002 59.0649 43.7588 58.3846 43.0749L59.0249 42.4312C59.5451 42.9542 60.2254 43.1554 60.9857 43.1554C62.0261 43.1554 62.6664 42.7933 62.6664 42.0289C62.6664 41.4657 62.3463 41.1439 61.626 41.1037L60.5855 41.0232C59.345 40.9025 58.6647 40.3795 58.6647 39.2933C58.6647 38.1266 59.6251 37.4427 60.9857 37.4427C61.9061 37.4427 62.7064 37.6841 63.2667 38.1266L62.6664 38.7301C62.2262 38.368 61.626 38.2071 60.9857 38.2071C60.0653 38.2071 59.5451 38.6094 59.5451 39.2531C59.5451 39.8163 59.8652 40.1381 60.6656 40.1784L61.706 40.2588C62.8265 40.3795 63.5868 40.7818 63.5868 41.9887C63.5868 43.2761 62.5463 44.0002 60.9857 44.0002ZM67.3084 43.9197C66.2279 43.9197 65.6677 43.1554 65.6677 42.1899V38.2473H64.8673V37.5232H65.6677V35.5117H66.588V37.5232H67.9486V38.2473H66.588V42.1496C66.588 42.7129 66.8682 43.0749 67.4684 43.0749H67.9486V43.8795L67.3084 43.9197ZM70.0295 35.7129V34.6669H71.0699V35.7129H70.0295ZM70.0695 43.9197V37.5232H70.9899V43.9197H70.0695ZM75.3918 43.9197C74.3113 43.9197 73.7511 43.1554 73.7511 42.1899V38.2473H72.9507V37.5232H73.7511V35.5117H74.6715V37.5232H76.032V38.2473H74.6715V42.1496C74.6715 42.7129 74.9516 43.0749 75.5518 43.0749H76.032V43.8795L75.3918 43.9197ZM82.1546 43.9197V43.1956C81.7144 43.7186 81.0741 44.0002 80.3538 44.0002C79.6736 44.0002 79.1133 43.7991 78.7132 43.3968C78.273 42.9542 78.0729 42.3508 78.0729 41.5864V37.5232H78.9933V41.4657C78.9933 42.5922 79.5935 43.1554 80.5539 43.1554C81.5143 43.1554 82.1546 42.5922 82.1546 41.4657V37.5232H83.075V43.9197H82.1546ZM87.4368 43.9197C86.3564 43.9197 85.7961 43.1554 85.7961 42.1899V38.2473H84.9958V37.5232H85.7961V35.5117H86.7165V37.5232H88.0771V38.2473H86.7165V42.1496C86.7165 42.7129 86.9966 43.0749 87.5969 43.0749H88.0771V43.8795L87.4368 43.9197ZM90.6782 40.983C90.6782 42.391 91.3185 43.1956 92.559 43.1956C93.2793 43.1956 93.7195 42.9542 94.2397 42.4715L94.88 43.0347C94.2397 43.6784 93.6394 44.0404 92.559 44.0404C90.8783 44.0404 89.7978 43.0347 89.7978 40.7818C89.7978 38.7301 90.7982 37.5232 92.3989 37.5232C94.0396 37.5232 95 38.7301 95 40.6209V41.0634L90.6782 40.983ZM93.8395 39.2129C93.5994 38.6496 93.0392 38.2473 92.3589 38.2473C91.6786 38.2473 91.1184 38.6094 90.8783 39.2129C90.7182 39.5749 90.7182 39.7761 90.6782 40.2588H94.0396C93.9996 39.7761 93.9996 39.5749 93.8395 39.2129Z" fill="#E84610"/>
</g>
<defs>
<clipPath id="clip0_1_818">
<rect width="95" height="42" fill="white" transform="translate(0 2)"/>
</clipPath>
</defs>
</svg>
