<svg width="96" height="22" viewBox="0 0 96 22" fill="none" xmlns="http://www.w3.org/2000/svg">
<g clip-path="url(#clip0_1_775)">
<path d="M8.67265 5.00172C7.55807 5.00172 7.23583 5.48322 7.23583 6.54522V8.30697H10.2088L9.91081 11.1532H7.23698V19.791H3.66918V11.1532H1.26562V8.30697H3.66918V6.5936C3.66918 3.7226 4.85768 2.2061 8.17369 2.2061C8.86857 2.20451 9.56289 2.24471 10.2527 2.32647V5.0051L8.67265 5.00172Z" fill="#4267B2"/>
<path d="M10.4561 13.6865C10.4561 10.478 12.0165 8.06152 15.2863 8.06152C17.0696 8.06152 18.1588 8.95477 18.6797 10.064V8.30677H22.0973V19.7908H18.6797V18.0538C18.1842 19.1641 17.0696 20.0327 15.2863 20.0327C12.0165 20.0327 10.4561 17.6195 10.4561 14.4076V13.6865ZM14.0227 14.4594C14.0227 16.1716 14.666 17.3056 16.3258 17.3056C17.788 17.3056 18.5307 16.2684 18.5307 14.6281V13.475C18.5307 11.8348 17.788 10.7975 16.3258 10.7975C14.666 10.7975 14.0227 11.9315 14.0227 13.6438V14.4594Z" fill="#4267B2"/>
<path d="M29.5285 8.06494C30.9145 8.06494 32.2277 8.35519 32.9461 8.83669L32.1538 11.2982C31.4106 10.9535 30.5988 10.7722 29.7757 10.7672C27.8433 10.7672 27.0036 11.8528 27.0036 13.7113V14.3863C27.0036 16.2448 27.8456 17.3304 29.7757 17.3304C30.5988 17.3254 31.4106 17.1441 32.1538 16.7994L32.9461 19.2598C32.2277 19.7424 30.9156 20.0327 29.5285 20.0327C25.3416 20.0327 23.4347 17.8367 23.4347 14.3143V13.7833C23.4347 10.2609 25.3416 8.06494 29.5285 8.06494Z" fill="#4267B2"/>
<path d="M33.4163 14.4877V13.4752C33.4163 10.2183 35.3232 8.0752 39.2132 8.0752C42.8792 8.0752 44.4893 10.2464 44.4893 13.4313V15.2651H36.9817C37.0568 16.8333 37.7752 17.5331 39.7538 17.5331C41.0924 17.5331 42.5038 17.2676 43.5445 16.8333L44.197 19.2127C43.2557 19.6964 41.3234 20.0576 39.6152 20.0576C35.1002 20.0564 33.4163 17.8627 33.4163 14.4877ZM36.9829 12.9914H41.2934V12.7023C41.2934 11.4479 40.7736 10.4523 39.2144 10.4523C37.6031 10.4534 36.9829 11.4434 36.9829 12.9869V12.9914Z" fill="#4267B2"/>
<path d="M57.7106 14.4111C57.7106 17.6196 56.1259 20.0361 52.8596 20.0361C51.0763 20.0361 49.8381 19.1676 49.3426 18.0572V19.7942H45.9746V2.5401L49.5413 2.2251V9.8976C50.061 8.8851 51.201 8.06385 52.8607 8.06385C56.1306 8.06385 57.7118 10.477 57.7118 13.6888L57.7106 14.4111ZM54.144 13.6146C54.144 11.998 53.5006 10.792 51.7912 10.792C50.329 10.792 49.5366 11.8045 49.5366 13.4458V14.6518C49.5366 16.2921 50.329 17.3057 51.7912 17.3057C53.5006 17.3057 54.144 16.0997 54.144 14.4831V13.6146Z" fill="#4267B2"/>
<path d="M58.9037 14.3379V13.7597C58.9037 10.4533 60.836 8.06494 64.7746 8.06494C68.7131 8.06494 70.6466 10.4533 70.6466 13.7597V14.3379C70.6466 17.6432 68.7143 20.0327 64.7757 20.0327C60.8372 20.0327 58.9037 17.6432 58.9037 14.3379ZM67.0788 13.5178C67.0788 11.9979 66.4343 10.7919 64.7688 10.7919C63.1033 10.7919 62.4646 11.9979 62.4646 13.5178V14.5798C62.4646 16.0997 63.1091 17.3057 64.7688 17.3057C66.4285 17.3057 67.0788 16.0997 67.0788 14.5798V13.5178Z" fill="#4267B2"/>
<path d="M71.8328 14.3379V13.7597C71.8328 10.4533 73.7651 8.06494 77.7036 8.06494C81.6422 8.06494 83.5745 10.4533 83.5745 13.7597V14.3379C83.5745 17.6432 81.6422 20.0327 77.7036 20.0327C73.7651 20.0327 71.8328 17.6432 71.8328 14.3379ZM80.0079 13.5178C80.0079 11.9979 79.3634 10.7919 77.7036 10.7919C76.0439 10.7919 75.4006 11.9979 75.4006 13.5178V14.5798C75.4006 16.0997 76.0439 17.3057 77.7036 17.3057C79.3634 17.3057 80.0079 16.0997 80.0079 14.5798V13.5178Z" fill="#4267B2"/>
<path d="M88.4787 13.7833L91.9957 8.30685H95.7852L92.095 13.9768L95.9342 19.7908H92.1447L88.4787 14.1658V19.7908H84.9109V2.5401L88.4787 2.2251V13.7833Z" fill="#4267B2"/>
</g>
<defs>
<clipPath id="clip0_1_775">
<rect width="95" height="18" fill="white" transform="translate(1 2)"/>
</clipPath>
</defs>
</svg>
