<svg width="86" height="36" viewBox="0 0 86 36" fill="none" xmlns="http://www.w3.org/2000/svg">
<path d="M36.5974 18.8719C36.5974 22.8972 33.4388 25.8634 29.5625 25.8634C25.6862 25.8634 22.5276 22.8972 22.5276 18.8719C22.5276 14.8182 25.6862 11.8804 29.5625 11.8804C33.4388 11.8804 36.5974 14.8182 36.5974 18.8719ZM33.5179 18.8719C33.5179 16.3565 31.6872 14.6354 29.5625 14.6354C27.4378 14.6354 25.6071 16.3565 25.6071 18.8719C25.6071 21.3621 27.4378 23.1084 29.5625 23.1084C31.6872 23.1084 33.5179 21.359 33.5179 18.8719Z" fill="#EA4335"/>
<path d="M51.7739 18.8719C51.7739 22.8972 48.6153 25.8634 44.739 25.8634C40.8626 25.8634 37.704 22.8972 37.704 18.8719C37.704 14.8213 40.8626 11.8804 44.739 11.8804C48.6153 11.8804 51.7739 14.8182 51.7739 18.8719ZM48.6943 18.8719C48.6943 16.3565 46.8637 14.6354 44.739 14.6354C42.6143 14.6354 40.7836 16.3565 40.7836 18.8719C40.7836 21.3621 42.6143 23.1084 44.739 23.1084C46.8637 23.1084 48.6943 21.359 48.6943 18.8719Z" fill="#FBBC05"/>
<path d="M66.318 12.3028V24.8547C66.318 30.018 63.2637 32.1268 59.653 32.1268C56.2541 32.1268 54.2084 29.8604 53.4369 28.0069L56.1181 26.8942C56.5955 28.0321 57.7654 29.3749 59.6498 29.3749C61.9611 29.3749 63.3934 27.9533 63.3934 25.2771V24.2716H63.2859C62.5966 25.1195 61.2686 25.8603 59.5929 25.8603C56.0865 25.8603 52.8741 22.8153 52.8741 18.8971C52.8741 14.9506 56.0865 11.8804 59.5929 11.8804C61.2655 11.8804 62.5934 12.6211 63.2859 13.4438H63.3934V12.3059H66.318V12.3028ZM63.6115 18.8971C63.6115 16.4353 61.9642 14.6354 59.868 14.6354C57.7433 14.6354 55.9632 16.4353 55.9632 18.8971C55.9632 21.3337 57.7433 23.1084 59.868 23.1084C61.9642 23.1084 63.6115 21.3337 63.6115 18.8971Z" fill="#4285F4"/>
<path d="M71.1397 4.9458V25.4349H68.136V4.9458H71.1397Z" fill="#34A853"/>
<path d="M82.8445 21.1732L85.2348 22.7619C84.4634 23.8998 82.6043 25.8605 79.3919 25.8605C75.4081 25.8605 72.4329 22.7903 72.4329 18.869C72.4329 14.7112 75.4334 11.8774 79.0473 11.8774C82.6865 11.8774 84.4665 14.7648 85.0483 16.3252L85.3676 17.1195L75.993 20.9904C76.7107 22.3931 77.8268 23.1086 79.3919 23.1086C80.9601 23.1086 82.0478 22.3395 82.8445 21.1732ZM75.4871 18.6578L81.7537 16.0635C81.4091 15.1904 80.372 14.582 79.1516 14.582C77.5865 14.582 75.4081 15.9595 75.4871 18.6578V18.6578Z" fill="#EA4335"/>
<path d="M11.1579 17.0529V14.0868H21.1838C21.2818 14.6037 21.3324 15.2152 21.3324 15.8772C21.3324 18.1026 20.7222 20.8545 18.7556 22.8151C16.8427 24.801 14.3987 25.8601 11.161 25.8601C5.16001 25.8601 0.113831 20.9869 0.113831 15.004C0.113831 9.02121 5.16001 4.14795 11.161 4.14795C14.4809 4.14795 16.8459 5.44664 18.6228 7.13936L16.5234 9.23241C15.2492 8.04088 13.5229 7.11414 11.1579 7.11414C6.77567 7.11414 3.34832 10.6351 3.34832 15.004C3.34832 19.3729 6.77567 22.8939 11.1579 22.8939C14.0003 22.8939 15.6191 21.756 16.6562 20.7221C17.4972 19.8836 18.0505 18.6858 18.2687 17.0498L11.1579 17.0529V17.0529Z" fill="#4285F4"/>
</svg>
