<svg width="76" height="67" viewBox="0 0 76 67" fill="none" xmlns="http://www.w3.org/2000/svg">
<path d="M22.4957 29.2465V41.3671H18.6149V26.132L26.6267 26.1399C30.0296 26.1399 31.1889 28.5258 31.1889 30.693V41.3671H27.3151V30.7129C27.3151 29.8051 26.8425 29.2465 25.7024 29.2465H22.4957V29.2465ZM48.884 29.0644C47.5576 29.0644 46.531 29.7424 46.1022 30.6628C45.8482 31.2153 45.7608 31.6388 45.7309 32.3154H51.7012C51.6246 30.6628 50.8708 29.0644 48.884 29.0644V29.0644ZM45.7309 34.9414C45.7309 36.9149 46.9649 38.3674 49.168 38.3674C50.882 38.3674 51.7339 37.8951 52.725 36.9149L55.1219 39.1902C53.5872 40.6966 51.9768 41.6114 49.1395 41.6114C45.4246 41.6114 41.8694 39.5975 41.8694 33.728C41.8694 28.7129 44.9734 25.8738 49.0521 25.8738C53.1865 25.8738 55.575 29.1977 55.575 33.5515V34.9414H45.7309V34.9414ZM38.5935 41.3481C35.432 41.3481 34.0906 39.16 34.0906 36.9989V21.9811H37.9653V26.132H40.8862V29.2465H37.9653V36.7575C37.9653 37.6425 38.3856 38.1338 39.3099 38.1338H40.8862V41.3481H38.5935V41.3481ZM15.162 24.0266H11.2547V20.3364H15.162V24.0266ZM15.1719 41.5273C12.2458 41.2478 11.2505 39.4832 11.2505 37.447L11.2547 26.132H15.1719V41.5273H15.1719ZM61.7419 41.2018C58.8219 40.9218 57.8313 39.16 57.8313 37.1266V19.8112H61.7419V41.2018V41.2018ZM75.4129 22.3136C71.869 5.13472 38.3287 4.04719 16.7099 17.1323V18.5769C38.3067 7.54195 68.9363 7.60695 71.727 23.4295C72.6606 28.6614 69.6953 34.1162 64.3994 37.2515V41.3537C70.7737 39.0351 77.311 31.5167 75.4129 22.3136V22.3136ZM36.1149 52.3701C21.1945 53.7413 5.64637 51.5881 3.47085 39.9963C2.40598 34.282 5.02426 28.2244 8.49771 24.4617V22.4497C2.24484 27.9012 -1.14874 34.803 0.804927 42.958C3.29851 53.4153 16.6426 59.3415 37.0102 57.3735C45.0687 56.5915 55.6161 54.0153 62.9488 50.0139V44.3293C56.2952 48.2684 45.2849 51.5259 36.1149 52.3701" fill="#0071C5"/>
<path d="M66.2623 20.9608C66.2623 20.7723 66.1516 20.7124 65.8985 20.7124H65.6542V21.2459C65.6897 21.2459 65.8672 21.2524 65.8985 21.2524C66.1516 21.2524 66.2623 21.1684 66.2623 20.9919V20.9608V20.9608ZM66.6434 22.2837H66.3538C66.3277 22.2837 66.3048 22.2675 66.2936 22.2457L65.8985 21.5798C65.8914 21.5663 65.8574 21.5501 65.8438 21.5501H65.6663V22.2104C65.6663 22.2457 65.642 22.2837 65.5953 22.2837H65.3333C65.3006 22.2837 65.2679 22.2457 65.2679 22.2104V20.5401C65.2679 20.4435 65.3058 20.4031 65.388 20.3906C65.4805 20.3785 65.7317 20.3701 65.8672 20.3701C66.3482 20.3701 66.6392 20.5113 66.6392 20.9608V20.9919C66.6392 21.27 66.5 21.4168 66.2842 21.4888L66.6938 22.1774C66.6964 22.1913 66.706 22.2104 66.706 22.2266C66.706 22.2536 66.6896 22.2837 66.6434 22.2837L66.6434 22.2837ZM65.9559 20.0688C65.2432 20.0688 64.6669 20.6538 64.6669 21.3583C64.6669 22.0636 65.2432 22.6394 65.9559 22.6394C66.6649 22.6394 67.2468 22.0636 67.2468 21.3583C67.2468 20.6538 66.6649 20.0688 65.9559 20.0688ZM65.9559 22.905C65.09 22.905 64.3992 22.2104 64.3992 21.3583C64.3992 20.5076 65.09 19.811 65.9559 19.811C66.8125 19.811 67.5163 20.5076 67.5163 21.3583C67.5163 22.2104 66.8125 22.905 65.9559 22.905Z" fill="#0071C5"/>
</svg>
