<svg width="105" height="17" viewBox="0 0 105 17" fill="none" xmlns="http://www.w3.org/2000/svg">
<path d="M99.105 1.1084C99.105 1.1084 99.7456 1.1084 100.013 1.30784C100.013 1.30784 100.282 1.50729 100.489 2.11658L104.969 15.4196C104.969 15.4196 105.031 15.5874 104.98 15.725C104.98 15.725 104.928 15.8611 104.7 15.8611H102.801C102.801 15.8611 102.574 15.8611 102.44 15.8089C102.44 15.8089 102.305 15.7566 102.223 15.5255L101.315 12.6468H96.0696L95.1615 15.5035C95.1615 15.5035 95.0993 15.6933 94.9858 15.7772C94.9858 15.7772 94.8723 15.8611 94.625 15.8611H92.7248C92.7249 15.8611 92.4978 15.8611 92.4357 15.725C92.4357 15.725 92.3748 15.5874 92.4357 15.4196L96.8954 2.11658C96.8954 2.11658 96.9994 1.80163 97.1021 1.6132C97.1021 1.6132 97.2062 1.42338 97.3603 1.31886C97.3603 1.31886 97.5157 1.21295 97.7224 1.16067C97.7224 1.16067 97.9279 1.1084 98.2171 1.1084H99.105ZM98.713 3.94589H98.6103L97.763 6.86454L96.69 10.4544H100.654L99.5807 6.92641L98.713 3.94589Z" fill="black"/>
<path d="M56.4676 1.14844C56.4676 1.14844 56.7568 1.14844 56.8595 1.22272C56.8595 1.22272 56.9622 1.29561 56.9622 1.58995L56.9622 7.03932H63.3843V1.58995C63.3843 1.58995 63.3843 1.31622 63.4992 1.23234C63.4992 1.23234 63.6127 1.14844 63.86 1.14844H65.4331C65.4331 1.14844 65.7223 1.14844 65.8156 1.22272C65.8156 1.22272 65.9088 1.29561 65.9088 1.58995V15.4197C65.9088 15.4197 65.9088 15.7141 65.8156 15.7883C65.8156 15.7883 65.7223 15.8612 65.4331 15.8612H63.86C63.86 15.8612 63.6127 15.8612 63.4992 15.7773C63.4992 15.7773 63.3843 15.6934 63.3843 15.4197V9.24412H56.9622V15.4197C56.9622 15.4197 56.9622 15.7141 56.8595 15.7883C56.8595 15.7883 56.7568 15.8612 56.4676 15.8612H54.8999C54.8999 15.8612 54.6729 15.8612 54.5499 15.7773C54.5499 15.7773 54.4256 15.6934 54.4256 15.4197L54.4255 1.58995C54.4256 1.58995 54.4256 1.31622 54.5499 1.23234C54.5499 1.23234 54.6729 1.14844 54.8999 1.14844H56.4676Z" fill="black"/>
<path d="M50.1754 1.14844C50.1754 1.14844 50.4025 1.14844 50.4755 1.23234C50.4755 1.23234 50.5471 1.31761 50.5471 1.54869V3.00248C50.5471 3.00248 50.5471 3.21294 50.4755 3.29682C50.4755 3.29682 50.4025 3.38073 50.1754 3.38073H46.2536V15.4197C46.2536 15.4197 46.2536 15.7141 46.1603 15.7883C46.1603 15.7883 46.0671 15.8612 45.7779 15.8612H44.1643C44.1643 15.8612 43.917 15.8612 43.8034 15.7773C43.8034 15.7773 43.6899 15.6934 43.6899 15.4197V3.38073H39.8491C39.8491 3.38073 39.6221 3.38073 39.5599 3.29682C39.5599 3.29682 39.4978 3.21294 39.4978 3.00248L39.4977 1.54869C39.4978 1.54869 39.4978 1.31761 39.5599 1.23234C39.5599 1.23234 39.6221 1.14844 39.8491 1.14844H50.1754Z" fill="black"/>
<path d="M24.0216 1.0609C28.0538 1.0609 31.3199 4.38499 31.3199 8.48877C31.3199 12.5898 28.0538 15.9166 24.0216 15.9166H7.9336C7.35835 15.9166 6.89215 15.4422 6.89215 14.8567C6.89215 14.2712 7.35835 13.7968 7.9336 13.7968H11.6823C12.2548 13.7968 12.721 13.3223 12.721 12.7368C12.721 12.1514 12.2548 11.6769 11.6823 11.6769H10.848C10.2728 11.6769 9.80658 11.2024 9.80658 10.617C9.80658 10.0315 10.2728 9.55703 10.848 9.55703H13.3481C13.9265 9.55539 14.3751 9.07562 14.3895 8.49709C14.3895 7.91163 13.9233 7.43716 13.3481 7.43716H4.59931C4.02406 7.43716 3.55786 6.96268 3.55786 6.37722C3.55786 5.79176 4.02406 5.31729 4.59931 5.31729H11.0553C11.6337 5.31565 12.0823 4.83588 12.0967 4.25735C12.0967 3.67189 11.6305 3.19742 11.0552 3.19742H9.59938C9.02413 3.19742 8.55793 2.72295 8.55793 2.13749C8.55793 1.55202 9.02413 1.0498 9.59938 1.0498L24.0216 1.0609ZM22.8547 3.53593C20.6137 3.53593 18.8007 5.38388 18.8007 7.66191V9.31285C18.8007 11.5937 20.6137 13.4388 22.8547 13.4388C25.093 13.4388 26.9088 11.5937 26.9088 9.31285V7.66191C26.9088 5.38388 25.093 3.53593 22.8547 3.53593ZM24.2397 7.43716C24.7795 7.43716 25.2184 7.88388 25.2184 8.43327V8.56091C25.2184 9.1103 24.7795 9.55703 24.2397 9.55703H21.1971C20.6573 9.55703 20.2184 9.1103 20.2184 8.56091V8.43327C20.2184 7.88388 20.6573 7.43716 21.1971 7.43716H24.2397Z" fill="black"/>
<path d="M4.662 13.7969C5.20454 13.7969 5.64075 14.2408 5.64075 14.793V14.9206C5.64075 15.47 5.20454 15.9167 4.662 15.9167H1.06053C0.520724 15.9167 0.0817871 15.47 0.0817871 14.9206V14.793C0.0817871 14.2408 0.520724 13.7969 1.06053 13.7969H4.662Z" fill="black"/>
<path d="M80.5055 1.13477C80.5055 1.13477 80.7731 1.13477 80.8461 1.25169C80.8461 1.25169 80.9177 1.36723 80.9177 1.61892V2.94481C80.9177 2.94481 80.9177 3.21853 80.8461 3.31343C80.8461 3.31343 80.7731 3.40832 80.5055 3.40832H75.0133C75.0133 3.40832 74.2281 3.40832 73.9078 3.76457C73.9078 3.76457 73.5889 4.12217 73.5889 4.79337V6.99817H79.8231C79.8231 6.99817 80.092 6.99817 80.165 7.10408C80.165 7.10408 80.2366 7.2086 80.2366 7.50158V8.65555C80.2366 8.65555 80.2366 8.90724 80.165 9.02142C80.165 9.02142 80.092 9.13693 79.8231 9.13693H73.5889V12.2082C73.5889 12.2082 73.5889 12.8808 73.9295 13.2274C73.9295 13.2274 74.27 13.5754 75.0133 13.5754H80.6285C80.6285 13.5754 80.9177 13.5754 80.9907 13.6799C80.9907 13.6799 81.0623 13.7845 81.0623 14.0788V15.3786C81.0623 15.3786 81.0623 15.6097 80.9799 15.7348C80.9799 15.7348 80.8975 15.8613 80.6285 15.8613H74.7443C74.7444 15.8613 73.6497 15.8613 72.9469 15.5464C72.9469 15.5464 72.2442 15.2314 71.8199 14.706C71.8199 14.706 71.3955 14.1806 71.2306 13.508C71.2306 13.508 71.0644 12.8368 71.0644 12.101V4.91717C71.0644 4.91717 71.0644 4.18132 71.2604 3.49911C71.2604 3.49911 71.4577 2.81554 71.9023 2.29012C71.9023 2.29012 72.3469 1.76609 73.0497 1.44975C73.0497 1.44975 73.7538 1.13477 74.7444 1.13477H80.5055Z" fill="black"/>
<path d="M87.7691 1.14844C87.7691 1.14844 88.0569 1.14844 88.161 1.22272C88.161 1.22272 88.2637 1.29561 88.2637 1.58995V15.4197C88.2637 15.4197 88.2637 15.7141 88.161 15.7883C88.161 15.7883 88.0569 15.8612 87.7691 15.8612H86.2014C86.2014 15.8612 85.9541 15.8612 85.8406 15.7773C85.8406 15.7773 85.7271 15.6934 85.7271 15.4197V1.58995C85.7271 1.58995 85.7271 1.31622 85.8406 1.23234C85.8406 1.23234 85.9541 1.14844 86.2014 1.14844H87.7691Z" fill="black"/>
<path d="M6.33051 1.07764C6.87032 1.07764 7.30653 1.52436 7.30653 2.07375V2.20416C7.30653 2.75355 6.87032 3.1975 6.33051 3.1975H2.30919C1.76938 3.1975 1.33044 2.75355 1.33044 2.20416V2.07375C1.33044 1.52436 1.76938 1.07764 2.30919 1.07764H6.33051Z" fill="black"/>
<path d="M7.57915 9.55713C8.11896 9.55713 8.5579 10.0039 8.5579 10.5532V10.6809C8.5579 11.2303 8.11896 11.677 7.57915 11.677H5.37084C4.83103 11.677 4.39209 11.2303 4.39209 10.6809V10.5532C4.39209 10.0039 4.83103 9.55713 5.37084 9.55713H7.57915Z" fill="black"/>
</svg>
